<mxfile host="app.diagrams.net" modified="2023-09-20T20:42:13.173Z" agent="Mozilla/5.0 (Windows NT 10.0; Win64; x64) AppleWebKit/537.36 (KHTML, like Gecko) Chrome/116.0.0.0 Safari/537.36" etag="ZnP8gZpkFTrAt6G1shzd" version="21.8.0" type="device">
  <diagram name="Page-1" id="daJ1U8mDf3gfgYco7bzk">
    <mxGraphModel dx="1509" dy="823" grid="1" gridSize="10" guides="1" tooltips="1" connect="1" arrows="1" fold="1" page="1" pageScale="1" pageWidth="850" pageHeight="1100" math="0" shadow="0">
      <root>
        <mxCell id="0" />
        <mxCell id="1" parent="0" />
        <mxCell id="9pUlnr799w4WHmp7HDe4-10" style="rounded=0;orthogonalLoop=1;jettySize=auto;html=1;exitX=0.5;exitY=0.5;exitDx=0;exitDy=0;exitPerimeter=0;" edge="1" parent="1" source="9pUlnr799w4WHmp7HDe4-1" target="9pUlnr799w4WHmp7HDe4-9">
          <mxGeometry relative="1" as="geometry" />
        </mxCell>
        <mxCell id="9pUlnr799w4WHmp7HDe4-1" value="Administrator" style="shape=umlActor;verticalLabelPosition=bottom;verticalAlign=top;html=1;outlineConnect=0;" vertex="1" parent="1">
          <mxGeometry x="40" y="330" width="30" height="60" as="geometry" />
        </mxCell>
        <mxCell id="9pUlnr799w4WHmp7HDe4-2" value="Manage User Accounts" style="ellipse;whiteSpace=wrap;html=1;" vertex="1" parent="1">
          <mxGeometry x="290" y="220" width="120" height="80" as="geometry" />
        </mxCell>
        <mxCell id="9pUlnr799w4WHmp7HDe4-3" value="Gather Logs" style="ellipse;whiteSpace=wrap;html=1;" vertex="1" parent="1">
          <mxGeometry x="320" y="320" width="120" height="80" as="geometry" />
        </mxCell>
        <mxCell id="9pUlnr799w4WHmp7HDe4-9" value="API Call" style="ellipse;whiteSpace=wrap;html=1;" vertex="1" parent="1">
          <mxGeometry x="120" y="320" width="120" height="80" as="geometry" />
        </mxCell>
        <mxCell id="9pUlnr799w4WHmp7HDe4-13" value="" style="endArrow=classic;dashed=1;html=1;rounded=0;exitX=1;exitY=0;exitDx=0;exitDy=0;entryX=0;entryY=0.5;entryDx=0;entryDy=0;startArrow=none;startFill=0;endFill=1;" edge="1" parent="1" source="9pUlnr799w4WHmp7HDe4-9" target="9pUlnr799w4WHmp7HDe4-2">
          <mxGeometry width="50" height="50" relative="1" as="geometry">
            <mxPoint x="370" y="400" as="sourcePoint" />
            <mxPoint x="420" y="350" as="targetPoint" />
          </mxGeometry>
        </mxCell>
        <mxCell id="9pUlnr799w4WHmp7HDe4-14" value="" style="endArrow=classic;dashed=1;html=1;rounded=0;exitX=1;exitY=0.5;exitDx=0;exitDy=0;entryX=0;entryY=0.5;entryDx=0;entryDy=0;endFill=1;" edge="1" parent="1" source="9pUlnr799w4WHmp7HDe4-9" target="9pUlnr799w4WHmp7HDe4-3">
          <mxGeometry width="50" height="50" relative="1" as="geometry">
            <mxPoint x="370" y="400" as="sourcePoint" />
            <mxPoint x="420" y="350" as="targetPoint" />
          </mxGeometry>
        </mxCell>
        <mxCell id="9pUlnr799w4WHmp7HDe4-16" value="&amp;lt;&amp;lt;includes&amp;gt;&amp;gt;" style="text;html=1;align=center;verticalAlign=middle;resizable=0;points=[];autosize=1;strokeColor=none;fillColor=none;rotation=-47;" vertex="1" parent="1">
          <mxGeometry x="190" y="280" width="100" height="30" as="geometry" />
        </mxCell>
        <mxCell id="9pUlnr799w4WHmp7HDe4-19" value="&amp;lt;&amp;lt;includes&amp;gt;&amp;gt;" style="text;html=1;align=center;verticalAlign=middle;resizable=0;points=[];autosize=1;strokeColor=none;fillColor=none;rotation=0;" vertex="1" parent="1">
          <mxGeometry x="230" y="340" width="100" height="30" as="geometry" />
        </mxCell>
        <mxCell id="9pUlnr799w4WHmp7HDe4-24" style="rounded=0;orthogonalLoop=1;jettySize=auto;html=1;exitX=0.5;exitY=0.5;exitDx=0;exitDy=0;exitPerimeter=0;endArrow=none;endFill=0;" edge="1" parent="1" source="9pUlnr799w4WHmp7HDe4-20" target="9pUlnr799w4WHmp7HDe4-22">
          <mxGeometry relative="1" as="geometry" />
        </mxCell>
        <mxCell id="9pUlnr799w4WHmp7HDe4-40" style="rounded=0;orthogonalLoop=1;jettySize=auto;html=1;exitX=0.5;exitY=0.5;exitDx=0;exitDy=0;exitPerimeter=0;entryX=1;entryY=0.5;entryDx=0;entryDy=0;endArrow=none;endFill=0;" edge="1" parent="1" source="9pUlnr799w4WHmp7HDe4-20" target="9pUlnr799w4WHmp7HDe4-23">
          <mxGeometry relative="1" as="geometry" />
        </mxCell>
        <mxCell id="9pUlnr799w4WHmp7HDe4-20" value="Malicious Actor" style="shape=umlActor;verticalLabelPosition=bottom;verticalAlign=top;html=1;outlineConnect=0;fillColor=#99CCFF;" vertex="1" parent="1">
          <mxGeometry x="1040" y="330" width="30" height="60" as="geometry" />
        </mxCell>
        <mxCell id="9pUlnr799w4WHmp7HDe4-21" value="Stolen Credentials" style="ellipse;whiteSpace=wrap;html=1;gradientColor=none;fillColor=#99CCFF;" vertex="1" parent="1">
          <mxGeometry x="620" y="110" width="120" height="80" as="geometry" />
        </mxCell>
        <mxCell id="9pUlnr799w4WHmp7HDe4-22" value="Openly Calling the API" style="ellipse;whiteSpace=wrap;html=1;gradientColor=none;fillColor=#99CCFF;" vertex="1" parent="1">
          <mxGeometry x="970" y="70" width="120" height="80" as="geometry" />
        </mxCell>
        <mxCell id="9pUlnr799w4WHmp7HDe4-47" style="rounded=0;orthogonalLoop=1;jettySize=auto;html=1;exitX=0;exitY=0.5;exitDx=0;exitDy=0;dashed=1;" edge="1" parent="1" source="9pUlnr799w4WHmp7HDe4-23" target="9pUlnr799w4WHmp7HDe4-9">
          <mxGeometry relative="1" as="geometry" />
        </mxCell>
        <mxCell id="9pUlnr799w4WHmp7HDe4-23" value="Man In The Middle" style="ellipse;whiteSpace=wrap;html=1;gradientColor=none;fillColor=#99CCFF;" vertex="1" parent="1">
          <mxGeometry x="480" y="640" width="120" height="80" as="geometry" />
        </mxCell>
        <mxCell id="9pUlnr799w4WHmp7HDe4-26" value="&amp;lt;&amp;lt;includes&amp;gt;&amp;gt;" style="text;html=1;align=center;verticalAlign=middle;resizable=0;points=[];autosize=1;strokeColor=none;fillColor=none;rotation=0;" vertex="1" parent="1">
          <mxGeometry x="615" y="800" width="100" height="30" as="geometry" />
        </mxCell>
        <mxCell id="9pUlnr799w4WHmp7HDe4-58" style="rounded=0;orthogonalLoop=1;jettySize=auto;html=1;exitX=0.5;exitY=1;exitDx=0;exitDy=0;dashed=1;" edge="1" parent="1" source="9pUlnr799w4WHmp7HDe4-32" target="9pUlnr799w4WHmp7HDe4-57">
          <mxGeometry relative="1" as="geometry" />
        </mxCell>
        <mxCell id="9pUlnr799w4WHmp7HDe4-32" value="Authentication" style="ellipse;whiteSpace=wrap;html=1;" vertex="1" parent="1">
          <mxGeometry x="410" y="30" width="120" height="80" as="geometry" />
        </mxCell>
        <mxCell id="9pUlnr799w4WHmp7HDe4-33" value="" style="endArrow=classic;dashed=1;html=1;rounded=0;exitX=0.5;exitY=0;exitDx=0;exitDy=0;entryX=0;entryY=0.5;entryDx=0;entryDy=0;endFill=1;edgeStyle=orthogonalEdgeStyle;curved=1;" edge="1" parent="1" source="9pUlnr799w4WHmp7HDe4-9" target="9pUlnr799w4WHmp7HDe4-32">
          <mxGeometry width="50" height="50" relative="1" as="geometry">
            <mxPoint x="670" y="580" as="sourcePoint" />
            <mxPoint x="750" y="580" as="targetPoint" />
          </mxGeometry>
        </mxCell>
        <mxCell id="9pUlnr799w4WHmp7HDe4-34" value="&amp;lt;&amp;lt;includes&amp;gt;&amp;gt;" style="text;html=1;align=center;verticalAlign=middle;resizable=0;points=[];autosize=1;strokeColor=none;fillColor=none;rotation=-21;" vertex="1" parent="1">
          <mxGeometry x="220" y="125" width="100" height="30" as="geometry" />
        </mxCell>
        <mxCell id="9pUlnr799w4WHmp7HDe4-36" value="" style="endArrow=none;dashed=1;html=1;rounded=0;entryX=1;entryY=0.5;entryDx=0;entryDy=0;endFill=0;edgeStyle=orthogonalEdgeStyle;curved=1;startArrow=classic;startFill=1;" edge="1" parent="1" source="9pUlnr799w4WHmp7HDe4-22" target="9pUlnr799w4WHmp7HDe4-32">
          <mxGeometry width="50" height="50" relative="1" as="geometry">
            <mxPoint x="700" y="290" as="sourcePoint" />
            <mxPoint x="750" y="580" as="targetPoint" />
          </mxGeometry>
        </mxCell>
        <mxCell id="9pUlnr799w4WHmp7HDe4-38" value="" style="endArrow=classic;dashed=1;html=1;rounded=0;exitX=0.5;exitY=1;exitDx=0;exitDy=0;endFill=1;edgeStyle=orthogonalEdgeStyle;curved=1;" edge="1" parent="1" source="9pUlnr799w4WHmp7HDe4-22" target="9pUlnr799w4WHmp7HDe4-9">
          <mxGeometry width="50" height="50" relative="1" as="geometry">
            <mxPoint x="670" y="580" as="sourcePoint" />
            <mxPoint x="750" y="580" as="targetPoint" />
            <Array as="points">
              <mxPoint x="860" y="310" />
              <mxPoint x="230" y="310" />
            </Array>
          </mxGeometry>
        </mxCell>
        <mxCell id="9pUlnr799w4WHmp7HDe4-39" value="&amp;lt;&amp;lt;threatens&amp;gt;&amp;gt;" style="text;html=1;align=center;verticalAlign=middle;resizable=0;points=[];autosize=1;strokeColor=none;fillColor=none;rotation=0;" vertex="1" parent="1">
          <mxGeometry x="600" y="280" width="100" height="30" as="geometry" />
        </mxCell>
        <mxCell id="9pUlnr799w4WHmp7HDe4-41" value="SSL Encryption" style="ellipse;whiteSpace=wrap;html=1;" vertex="1" parent="1">
          <mxGeometry x="170" y="590" width="120" height="80" as="geometry" />
        </mxCell>
        <mxCell id="9pUlnr799w4WHmp7HDe4-43" value="" style="endArrow=classic;dashed=1;html=1;rounded=0;exitX=0.5;exitY=1;exitDx=0;exitDy=0;entryX=0.5;entryY=0;entryDx=0;entryDy=0;endFill=1;" edge="1" parent="1" source="9pUlnr799w4WHmp7HDe4-9" target="9pUlnr799w4WHmp7HDe4-41">
          <mxGeometry width="50" height="50" relative="1" as="geometry">
            <mxPoint x="120" y="750" as="sourcePoint" />
            <mxPoint x="360" y="570" as="targetPoint" />
          </mxGeometry>
        </mxCell>
        <mxCell id="9pUlnr799w4WHmp7HDe4-45" value="&amp;lt;&amp;lt;extends&amp;gt;&amp;gt;" style="text;html=1;align=center;verticalAlign=middle;resizable=0;points=[];autosize=1;strokeColor=none;fillColor=none;rotation=80;" vertex="1" parent="1">
          <mxGeometry x="140" y="470" width="90" height="30" as="geometry" />
        </mxCell>
        <mxCell id="9pUlnr799w4WHmp7HDe4-48" value="&amp;lt;&amp;lt;threatens&amp;gt;&amp;gt;" style="text;html=1;align=center;verticalAlign=middle;resizable=0;points=[];autosize=1;strokeColor=none;fillColor=none;rotation=52;" vertex="1" parent="1">
          <mxGeometry x="280" y="480" width="100" height="30" as="geometry" />
        </mxCell>
        <mxCell id="9pUlnr799w4WHmp7HDe4-49" value="" style="endArrow=classic;dashed=1;html=1;rounded=0;exitX=1;exitY=0.5;exitDx=0;exitDy=0;entryX=0;entryY=0.5;entryDx=0;entryDy=0;endFill=1;" edge="1" parent="1" source="9pUlnr799w4WHmp7HDe4-41" target="9pUlnr799w4WHmp7HDe4-23">
          <mxGeometry width="50" height="50" relative="1" as="geometry">
            <mxPoint x="1015" y="830" as="sourcePoint" />
            <mxPoint x="1095" y="830" as="targetPoint" />
          </mxGeometry>
        </mxCell>
        <mxCell id="9pUlnr799w4WHmp7HDe4-50" value="&amp;lt;&amp;lt;mitigates&amp;gt;&amp;gt;" style="text;html=1;align=center;verticalAlign=middle;resizable=0;points=[];autosize=1;strokeColor=none;fillColor=none;rotation=15;" vertex="1" parent="1">
          <mxGeometry x="310" y="660" width="100" height="30" as="geometry" />
        </mxCell>
        <mxCell id="9pUlnr799w4WHmp7HDe4-51" value="&amp;lt;&amp;lt;prevents&amp;gt;&amp;gt;" style="text;html=1;align=center;verticalAlign=middle;resizable=0;points=[];autosize=1;strokeColor=none;fillColor=none;rotation=0;" vertex="1" parent="1">
          <mxGeometry x="590" y="40" width="100" height="30" as="geometry" />
        </mxCell>
        <mxCell id="9pUlnr799w4WHmp7HDe4-53" value="" style="endArrow=classic;dashed=1;html=1;rounded=0;exitX=0;exitY=1;exitDx=0;exitDy=0;endFill=1;" edge="1" parent="1" source="9pUlnr799w4WHmp7HDe4-22" target="9pUlnr799w4WHmp7HDe4-21">
          <mxGeometry width="50" height="50" relative="1" as="geometry">
            <mxPoint x="1015" y="830" as="sourcePoint" />
            <mxPoint x="1095" y="830" as="targetPoint" />
          </mxGeometry>
        </mxCell>
        <mxCell id="9pUlnr799w4WHmp7HDe4-54" value="&amp;lt;&amp;lt;extends&amp;gt;&amp;gt;" style="text;html=1;align=center;verticalAlign=middle;resizable=0;points=[];autosize=1;strokeColor=none;fillColor=none;rotation=0;" vertex="1" parent="1">
          <mxGeometry x="830" y="120" width="90" height="30" as="geometry" />
        </mxCell>
        <mxCell id="9pUlnr799w4WHmp7HDe4-55" value="" style="endArrow=classic;dashed=1;html=1;rounded=0;exitX=0;exitY=0;exitDx=0;exitDy=0;entryX=1;entryY=1;entryDx=0;entryDy=0;endFill=1;" edge="1" parent="1" source="9pUlnr799w4WHmp7HDe4-21" target="9pUlnr799w4WHmp7HDe4-32">
          <mxGeometry width="50" height="50" relative="1" as="geometry">
            <mxPoint x="1015" y="830" as="sourcePoint" />
            <mxPoint x="1095" y="830" as="targetPoint" />
          </mxGeometry>
        </mxCell>
        <mxCell id="9pUlnr799w4WHmp7HDe4-56" value="&amp;lt;&amp;lt;threatens&amp;gt;&amp;gt;" style="text;html=1;align=center;verticalAlign=middle;resizable=0;points=[];autosize=1;strokeColor=none;fillColor=none;rotation=10;" vertex="1" parent="1">
          <mxGeometry x="530" y="90" width="100" height="30" as="geometry" />
        </mxCell>
        <mxCell id="9pUlnr799w4WHmp7HDe4-60" style="rounded=0;orthogonalLoop=1;jettySize=auto;html=1;exitX=1;exitY=1;exitDx=0;exitDy=0;entryX=0;entryY=0.5;entryDx=0;entryDy=0;dashed=1;" edge="1" parent="1" source="9pUlnr799w4WHmp7HDe4-57" target="9pUlnr799w4WHmp7HDe4-21">
          <mxGeometry relative="1" as="geometry" />
        </mxCell>
        <mxCell id="9pUlnr799w4WHmp7HDe4-57" value="MFA" style="ellipse;whiteSpace=wrap;html=1;" vertex="1" parent="1">
          <mxGeometry x="450" y="185" width="120" height="80" as="geometry" />
        </mxCell>
        <mxCell id="9pUlnr799w4WHmp7HDe4-59" value="&amp;lt;&amp;lt;extends&amp;gt;&amp;gt;" style="text;html=1;align=center;verticalAlign=middle;resizable=0;points=[];autosize=1;strokeColor=none;fillColor=none;rotation=66;" vertex="1" parent="1">
          <mxGeometry x="425" y="130" width="90" height="30" as="geometry" />
        </mxCell>
        <mxCell id="9pUlnr799w4WHmp7HDe4-61" value="&amp;lt;&amp;lt;mitigates&amp;gt;&amp;gt;" style="text;html=1;align=center;verticalAlign=middle;resizable=0;points=[];autosize=1;strokeColor=none;fillColor=none;rotation=-60;" vertex="1" parent="1">
          <mxGeometry x="550" y="190" width="100" height="30" as="geometry" />
        </mxCell>
        <mxCell id="9pUlnr799w4WHmp7HDe4-63" style="rounded=0;orthogonalLoop=1;jettySize=auto;html=1;exitX=1;exitY=0.5;exitDx=0;exitDy=0;endArrow=none;endFill=0;" edge="1" parent="1" source="9pUlnr799w4WHmp7HDe4-62" target="9pUlnr799w4WHmp7HDe4-20">
          <mxGeometry relative="1" as="geometry" />
        </mxCell>
        <mxCell id="9pUlnr799w4WHmp7HDe4-64" style="rounded=0;orthogonalLoop=1;jettySize=auto;html=1;exitX=0;exitY=0.5;exitDx=0;exitDy=0;entryX=1;entryY=0.5;entryDx=0;entryDy=0;dashed=1;" edge="1" parent="1" source="9pUlnr799w4WHmp7HDe4-62" target="9pUlnr799w4WHmp7HDe4-2">
          <mxGeometry relative="1" as="geometry" />
        </mxCell>
        <mxCell id="9pUlnr799w4WHmp7HDe4-62" value="Creating Unauthorized Users" style="ellipse;whiteSpace=wrap;html=1;gradientColor=none;fillColor=#99CCFF;" vertex="1" parent="1">
          <mxGeometry x="770" y="315" width="120" height="80" as="geometry" />
        </mxCell>
        <mxCell id="9pUlnr799w4WHmp7HDe4-65" value="&amp;lt;&amp;lt;threatens&amp;gt;&amp;gt;" style="text;html=1;align=center;verticalAlign=middle;resizable=0;points=[];autosize=1;strokeColor=none;fillColor=none;rotation=20;" vertex="1" parent="1">
          <mxGeometry x="555" y="310" width="100" height="30" as="geometry" />
        </mxCell>
        <mxCell id="9pUlnr799w4WHmp7HDe4-66" value="" style="endArrow=classic;dashed=1;html=1;rounded=0;exitX=1;exitY=0.5;exitDx=0;exitDy=0;entryX=0;entryY=0.5;entryDx=0;entryDy=0;endFill=1;" edge="1" parent="1" source="9pUlnr799w4WHmp7HDe4-3" target="9pUlnr799w4WHmp7HDe4-62">
          <mxGeometry width="50" height="50" relative="1" as="geometry">
            <mxPoint x="1015" y="830" as="sourcePoint" />
            <mxPoint x="1095" y="830" as="targetPoint" />
          </mxGeometry>
        </mxCell>
        <mxCell id="9pUlnr799w4WHmp7HDe4-67" value="&amp;lt;&amp;lt;detects&amp;gt;&amp;gt;" style="text;html=1;align=center;verticalAlign=middle;resizable=0;points=[];autosize=1;strokeColor=none;fillColor=none;rotation=0;" vertex="1" parent="1">
          <mxGeometry x="550" y="360" width="90" height="30" as="geometry" />
        </mxCell>
        <mxCell id="9pUlnr799w4WHmp7HDe4-69" value="Modifying Audit Logs" style="ellipse;whiteSpace=wrap;html=1;gradientColor=none;fillColor=#99CCFF;" vertex="1" parent="1">
          <mxGeometry x="670" y="415" width="120" height="80" as="geometry" />
        </mxCell>
        <mxCell id="9pUlnr799w4WHmp7HDe4-70" style="rounded=0;orthogonalLoop=1;jettySize=auto;html=1;exitX=1;exitY=0.5;exitDx=0;exitDy=0;entryX=0.5;entryY=0.5;entryDx=0;entryDy=0;entryPerimeter=0;endArrow=none;endFill=0;" edge="1" parent="1" source="9pUlnr799w4WHmp7HDe4-69" target="9pUlnr799w4WHmp7HDe4-20">
          <mxGeometry relative="1" as="geometry" />
        </mxCell>
        <mxCell id="9pUlnr799w4WHmp7HDe4-71" value="" style="endArrow=classic;dashed=1;html=1;rounded=0;exitX=0;exitY=0.5;exitDx=0;exitDy=0;entryX=1;entryY=1;entryDx=0;entryDy=0;endFill=1;" edge="1" parent="1" source="9pUlnr799w4WHmp7HDe4-69" target="9pUlnr799w4WHmp7HDe4-3">
          <mxGeometry width="50" height="50" relative="1" as="geometry">
            <mxPoint x="1015" y="830" as="sourcePoint" />
            <mxPoint x="1095" y="830" as="targetPoint" />
          </mxGeometry>
        </mxCell>
        <mxCell id="9pUlnr799w4WHmp7HDe4-72" value="&amp;lt;&amp;lt;threatens&amp;gt;&amp;gt;" style="text;html=1;align=center;verticalAlign=middle;resizable=0;points=[];autosize=1;strokeColor=none;fillColor=none;rotation=15;" vertex="1" parent="1">
          <mxGeometry x="540" y="425" width="100" height="30" as="geometry" />
        </mxCell>
        <mxCell id="9pUlnr799w4WHmp7HDe4-73" value="Remote Log Aggregation" style="ellipse;whiteSpace=wrap;html=1;" vertex="1" parent="1">
          <mxGeometry x="440" y="480" width="120" height="80" as="geometry" />
        </mxCell>
        <mxCell id="9pUlnr799w4WHmp7HDe4-74" value="" style="endArrow=classic;dashed=1;html=1;rounded=0;exitX=0.5;exitY=1;exitDx=0;exitDy=0;entryX=0;entryY=0;entryDx=0;entryDy=0;endFill=1;" edge="1" parent="1" source="9pUlnr799w4WHmp7HDe4-3" target="9pUlnr799w4WHmp7HDe4-73">
          <mxGeometry width="50" height="50" relative="1" as="geometry">
            <mxPoint x="1015" y="830" as="sourcePoint" />
            <mxPoint x="1095" y="830" as="targetPoint" />
          </mxGeometry>
        </mxCell>
        <mxCell id="9pUlnr799w4WHmp7HDe4-75" value="&amp;lt;&amp;lt;extends&amp;gt;&amp;gt;" style="text;html=1;align=center;verticalAlign=middle;resizable=0;points=[];autosize=1;strokeColor=none;fillColor=none;rotation=50;" vertex="1" parent="1">
          <mxGeometry x="360" y="430" width="90" height="30" as="geometry" />
        </mxCell>
        <mxCell id="9pUlnr799w4WHmp7HDe4-76" value="" style="endArrow=classic;dashed=1;html=1;rounded=0;exitX=1;exitY=0.5;exitDx=0;exitDy=0;entryX=0;entryY=0.5;entryDx=0;entryDy=0;endFill=1;" edge="1" parent="1" source="9pUlnr799w4WHmp7HDe4-73" target="9pUlnr799w4WHmp7HDe4-69">
          <mxGeometry width="50" height="50" relative="1" as="geometry">
            <mxPoint x="1015" y="830" as="sourcePoint" />
            <mxPoint x="1095" y="830" as="targetPoint" />
          </mxGeometry>
        </mxCell>
        <mxCell id="9pUlnr799w4WHmp7HDe4-77" value="&amp;lt;&amp;lt;prevents&amp;gt;&amp;gt;" style="text;html=1;align=center;verticalAlign=middle;resizable=0;points=[];autosize=1;strokeColor=none;fillColor=none;rotation=-30;" vertex="1" parent="1">
          <mxGeometry x="570" y="490" width="100" height="30" as="geometry" />
        </mxCell>
      </root>
    </mxGraphModel>
  </diagram>
</mxfile>
